<svg width="1059" height="215" viewBox="0 0 1059 215" fill="none" xmlns="http://www.w3.org/2000/svg">
<path d="M320.825 60.3V210.3H284.825V198.9C279.425 203.5 273.325 207.3 266.525 210.3C259.725 213.1 252.125 214.5 243.725 214.5C233.925 214.5 225.025 212.7 217.025 209.1C209.025 205.3 202.125 200.2 196.325 193.8C190.725 187.4 186.325 179.9 183.125 171.3C180.125 162.7 178.625 153.5 178.625 143.7V60.3H214.625V143.7C214.625 153.1 218.125 161.3 225.125 168.3C231.925 175.1 240.125 178.5 249.725 178.5C259.525 178.5 267.825 175.1 274.625 168.3C281.425 161.5 284.825 153.3 284.825 143.7V60.3H320.825Z" fill="white"/>
<path d="M407.014 56.1C416.814 56.1 425.714 58 433.714 61.8C441.714 65.4 448.514 70.5 454.114 77.1C459.914 83.5 464.314 91 467.314 99.6C470.514 108.2 472.114 117.4 472.114 127.2V210.3H436.114V127.2C436.114 117.2 432.614 108.9 425.614 102.3C418.814 95.5 410.614 92.1 401.014 92.1C391.214 92.1 382.914 95.5 376.114 102.3C369.314 109.1 365.914 117.4 365.914 127.2V210.3H329.914V60.3H365.914V71.7C371.314 67.1 377.414 63.4 384.214 60.6C391.014 57.6 398.614 56.1 407.014 56.1Z" fill="white"/>
<path d="M481.203 210.3V60.3H517.203V210.3H481.203ZM481.203 0.299996H517.203V36.3H481.203V0.299996Z" fill="white"/>
<path d="M565.332 210.3H529.332V0.299996H565.332V210.3Z" fill="white"/>
<path d="M612.861 153.3C614.861 157.9 617.761 162 621.561 165.6C625.761 169.8 630.461 173 635.661 175.2C640.861 177.2 646.361 178.2 652.161 178.2C660.361 178.2 667.661 176.3 674.061 172.5L711.561 187.5C704.361 195.9 695.661 202.5 685.461 207.3C675.261 211.9 664.161 214.2 652.161 214.2C641.161 214.2 630.861 212.2 621.261 208.2C611.661 204 603.261 198.3 596.061 191.1C588.861 183.9 583.161 175.5 578.961 165.9C574.961 156.3 572.961 146.1 572.961 135.3C572.961 124.3 574.961 114 578.961 104.4C583.161 94.8 588.861 86.4 596.061 79.2C603.261 72 611.661 66.4 621.261 62.4C630.861 58.2 641.161 56.1 652.161 56.1C663.161 56.1 673.461 58.2 683.061 62.4C692.661 66.4 701.061 72 708.261 79.2C715.461 86.4 721.061 94.8 725.061 104.4C729.261 114 731.361 124.3 731.361 135.3C731.361 141.7 730.661 147.7 729.261 153.3H612.861ZM652.161 92.1C640.561 92.1 630.361 96.3 621.561 104.7C617.761 108.5 614.861 112.7 612.861 117.3H691.461C689.461 112.7 686.561 108.5 682.761 104.7C674.361 96.3 664.161 92.1 652.161 92.1Z" fill="white"/>
<path d="M892.869 60V210.3H856.869V135.3C856.869 123.3 852.669 113.1 844.269 104.7C835.869 96.3 825.669 92.1 813.669 92.1C807.869 92.1 802.269 93.2 796.869 95.4C791.669 97.6 787.069 100.7 783.069 104.7C774.669 113.1 770.469 123.3 770.469 135.3C770.469 147.1 774.669 157.2 783.069 165.6C787.069 169.8 791.669 173 796.869 175.2C802.269 177.2 807.869 178.2 813.669 178.2C819.669 178.2 825.069 177.2 829.869 175.2L842.769 207.3C833.569 211.9 822.869 214.2 810.669 214.2C799.669 214.2 789.469 212.2 780.069 208.2C770.869 204 762.869 198.3 756.069 191.1C749.269 183.9 743.969 175.5 740.169 165.9C736.369 156.3 734.469 146.1 734.469 135.3C734.469 124.3 736.369 114 740.169 104.4C743.969 94.8 749.269 86.4 756.069 79.2C762.869 72 770.869 66.4 780.069 62.4C789.469 58.2 799.669 56.1 810.669 56.1C820.469 56.1 829.169 57.6 836.769 60.6C844.369 63.6 851.069 67.4 856.869 72V60H892.869Z" fill="white"/>
<path d="M1058.47 0V210.3H1022.47V135.3C1022.47 123.1 1018.27 112.9 1009.87 104.7C1001.47 96.3 991.371 92.1 979.571 92.1C967.571 92.1 957.371 96.3 948.971 104.7C940.571 113.1 936.371 123.3 936.371 135.3C936.371 147.1 940.571 157.2 948.971 165.6C952.971 169.8 957.571 173 962.771 175.2C968.171 177.2 973.771 178.2 979.571 178.2C985.371 178.2 990.671 177.2 995.471 175.2L1008.37 207.3C999.171 211.9 988.571 214.2 976.571 214.2C965.571 214.2 955.371 212.2 945.971 208.2C936.771 204 928.771 198.3 921.971 191.1C915.171 183.9 909.871 175.5 906.071 165.9C902.271 156.3 900.371 146.1 900.371 135.3C900.371 124.3 902.271 114 906.071 104.4C909.871 94.8 915.171 86.4 921.971 79.2C928.771 72 936.771 66.4 945.971 62.4C955.371 58.2 965.571 56.1 976.571 56.1C986.171 56.1 994.771 57.6 1002.37 60.6C1009.97 63.6 1016.67 67.4 1022.47 72V0H1058.47Z" fill="white"/>
<path d="M0.000549316 0.299996H187L145.38 38.3H0.000549316V0.299996Z" fill="white"/>
<path d="M0 56.1H126L97.9561 94.1H0V56.1Z" fill="white"/>
<path d="M0.000549316 114.5H80.0005L62.1949 152.5H0.000549316V114.5Z" fill="white"/>
<path d="M0.00123239 175H47.0012L36.5404 213H0.00123239V175Z" fill="white"/>
</svg>
