<svg width="589" height="590" viewBox="0 0 589 590" fill="none" xmlns="http://www.w3.org/2000/svg">
<path d="M39.2 443C13.0667 397.667 0 348.333 0 295C0 241.667 13.0667 192.6 39.2 147.8C65.3333 102.467 101.067 66.7333 146.4 40.6C191.733 13.9333 241.067 0.599976 294.4 0.599976C334.4 0.599976 372.533 8.33332 408.8 23.8C445.067 39.2667 476.267 60.3333 502.4 87C529.067 113.133 550.133 144.333 565.6 180.6C581.067 216.867 588.8 255 588.8 295C588.8 355.8 571.733 411.267 537.6 461.4L588.8 511L527.2 575L317.6 371.8L379.2 307.8L469.6 395.8C487.733 364.867 496.8 331.267 496.8 295C496.8 239 477.067 191.267 437.6 151.8C398.133 112.333 350.4 92.6 294.4 92.6C238.4 92.6 190.667 112.333 151.2 151.8C111.733 191.267 92 239 92 295C92 351 111.733 398.733 151.2 438.2C190.667 477.667 238.4 497.4 294.4 497.4C302.933 497.4 311.2 496.867 319.2 495.8L396.8 571C363.733 583.267 329.6 589.4 294.4 589.4C241.067 589.4 191.733 576.333 146.4 550.2C101.067 523.533 65.3333 487.8 39.2 443Z" fill="white"/>
</svg>
