<svg width="2064" height="522" viewBox="0 0 2064 522" fill="none" xmlns="http://www.w3.org/2000/svg">
<path d="M128.352 35.4C168.019 12.0666 211.185 0.399962 257.852 0.399962C304.519 0.399962 347.452 12.0666 386.652 35.4C426.319 58.2666 457.585 89.5333 480.452 129.2C503.785 168.4 515.452 211.333 515.452 258C515.452 311.2 500.519 359.733 470.652 403.6L515.452 447L461.552 503L417.452 460.3C367.052 499.967 309.652 518.4 245.252 515.6C244.785 515.133 244.319 514.9 243.852 514.9C199.052 512.567 157.985 499.733 120.652 476.4C83.3186 453.067 53.9186 422.267 32.452 384C10.9853 345.267 0.251954 303.267 0.251954 258C0.251954 211.333 11.6853 168.4 34.552 129.2C57.4186 89.5333 88.6853 58.2666 128.352 35.4ZM243.852 434.4C286.319 437.667 324.585 427.4 358.652 403.6L278.152 325.2L332.052 269.2L411.152 346.2C427.019 319.133 434.952 289.733 434.952 258C434.952 209 417.685 167.233 383.152 132.7C348.619 98.1666 306.852 80.9 257.852 80.9C208.852 80.9 167.085 98.1666 132.552 132.7C98.0186 167.233 80.752 209 80.752 258C80.752 304.2 96.3853 344.333 127.652 378.4C159.385 412.467 198.119 431.133 243.852 434.4ZM941.008 13V343.4C941.008 392.4 923.508 434.4 888.508 469.4C853.975 503.933 812.208 521.2 763.208 521.2C714.208 521.2 672.208 503.933 637.208 469.4C602.675 434.4 585.408 392.4 585.408 343.4V13H663.108V343.4C663.108 370.933 672.908 394.5 692.508 414.1C712.108 433.7 735.675 443.5 763.208 443.5C790.742 443.5 814.308 433.7 833.908 414.1C853.508 394.5 863.308 370.933 863.308 343.4V13H941.008ZM1088.99 503H1011.29V13H1088.99V503ZM1558.64 13V90.7L1268.84 425.3H1558.64V503H1158.94V425.3L1449.44 90.7H1158.94V13H1558.64ZM2063.97 13L1885.47 269.9V503H1807.77V272L1628.57 13H1723.07C1737.54 33.5333 1778.61 92.8 1846.27 190.8C1897.61 116.6 1938.67 57.3333 1969.47 13H2063.97Z" fill="black"/>
</svg>
